<svg xmlns="http://www.w3.org/2000/svg" viewBox="0 0 658 312" role="img" aria-label="arxiv-tui">
  <title>arxiv-tui</title>
  <rect width="658" height="312" rx="34" fill="#1A1B26"/>
  <rect x="40" y="40" width="577.9" height="232.0" rx="22" fill="none" stroke="#565F89" stroke-width="7"/>
  <rect x="72.0" y="33.0" width="319.9" height="14" fill="#1A1B26"/>
  <g fill="#E0AF68" transform="translate(84.0,60.0) scale(0.05479,-0.05479)"><path transform="translate(0,0)" d="M238.70611548516536 -10Q153.88458251953125 -10 104.76211547851562 34.81555730646307Q55.6396484375 79.63111461292614 55.6396484375 156.1700439453125Q55.6396484375 236.68017578125 110.02731323242188 280.9726867675781Q164.41497802734375 325.26519775390625 262.8704833984375 325.26519775390625H400.1092529296875V372.07489013671875Q400.1092529296875 411.95947265625 374.2894287109375 434.4867858886719Q348.4696044921875 457.01409912109375 303 457.01409912109375Q262.4751878821331 457.01409912109375 235.1829674762228 439.1466979980469Q207.8907470703125 421.279296875 202.8907470703125 390.37445068359375H80.71453857421875Q89.71453857421875 468.39471435546875 150.93215942382812 514.1973571777344Q212.1497802734375 560 306.75506591796875 560Q407.60528564453125 560 466.4079284667969 509.5374450683594Q525.2105712890625 459.07489013671875 525.2105712890625 373.31982421875V0H403.86431884765625V96.22467041015625H383.59912109375L404.4493408203125 122.92510986328125Q404.4493408203125 61.57505915715144 359.11369389040465 25.78752957857572Q313.77804696049674 -10 238.70611548516536 -10ZM280.43524169921875 83.81585693359375Q332.8950822386023 83.81585693359375 366.5021675841449 110.84317016601562Q400.1092529296875 137.8704833984375 400.1092529296875 180.78623294830322V247.73480224609375H265.45550537109375Q226.8907470703125 247.73480224609375 203.81585693359375 225.95242309570312Q180.740966796875 204.1700439453125 180.740966796875 167.72476196289062Q180.740966796875 128.73678588867188 207.13062780043657 106.27632141113281Q233.52028880399817 83.81585693359375 280.43524169921875 83.81585693359375Z"/><path transform="translate(600,0)" d="M94.03436279296875 0V550H212.45550537109375V445H243.40087890625L206.2105712890625 380.58502197265625Q206.2105712890625 469.58502197265625 246.17312622070312 514.7925109863281Q286.13568115234375 560 363.8907470703125 560Q453.2308349609375 560 504.14581298828125 505.2074890136719Q555.060791015625 450.41497802734375 555.060791015625 353.31982421875V313.299560546875H424.1092529296875V344.1497802734375Q424.1092529296875 397.4493408203125 396.70440673828125 426.3916320800781Q369.299560546875 455.33392333984375 321.24493408203125 455.33392333984375Q272.43524169921875 455.33392333984375 245.78546142578125 426.18414306640625Q219.13568115234375 397.03436279296875 219.13568115234375 344.1497802734375V0Z"/><path transform="translate(1200,0)" d="M35.95947265625 0 228.03436279296875 284.1700439453125 48.54449462890625 550H190.2308349609375L275.24493408203125 415.101318359375Q282.8299560546875 402.9312744140625 289.6224670410156 388.17620849609375Q296.41497802734375 373.421142578125 300.41497802734375 364.2510986328125Q304 373.421142578125 311.08502197265625 388.17620849609375Q318.1700439453125 402.9312744140625 325.1700439453125 415.101318359375L410.59912109375 550H551.8704833984375L372.96563720703125 283.75506591796875L564.04052734375 0H422.35418701171875L326.58502197265625 150.7489013671875Q319 163.50396728515625 311.91497802734375 178.5889892578125Q304.8299560546875 193.67401123046875 300.41497802734375 203.259033203125Q296.41497802734375 193.67401123046875 289.2074890136719 178.5889892578125Q282 163.50396728515625 274 150.7489013671875L177.2308349609375 0Z"/><path transform="translate(1800,0)" d="M76.22467041015625 0V113.5911865234375H268.299560546875V436.99383544921875H101.22467041015625V550H387.5506591796875V113.5911865234375H557.9251098632812V0ZM317.92510986328125 641.979736328125Q280.24493408203125 641.979736328125 258.0273132324219 661.3476824079241Q235.8096923828125 680.7156284877232 235.8096923828125 713.7550659179688Q235.8096923828125 747.2651977539062 258.0273132324219 766.8127746582031Q280.24493408203125 786.3603515625 317.92510986328125 786.3603515625Q355.60528564453125 786.3603515625 377.8229064941406 766.8127746582031Q400.04052734375 747.2651977539062 400.04052734375 713.7550659179688Q400.04052734375 680.7156284877232 377.8229064941406 661.3476824079241Q355.60528564453125 641.979736328125 317.92510986328125 641.979736328125Z"/><path transform="translate(2400,0)" d="M220.279296875 0 38.619384765625 550H167.47576904296875L271.92510986328125 215.68634033203125Q281.1700439453125 185.6114501953125 289.58502197265625 153.64889526367188Q298 121.68634033203125 302 102.9312744140625Q307 121.68634033203125 315.1224670410156 153.64889526367188Q323.24493408203125 185.6114501953125 331.4898681640625 215.101318359375L434.1092529296875 550H561.380615234375L380.8907470703125 0Z"/><path transform="translate(3000,0)" d="M140 272.4493408203125V387.5506591796875H460V272.4493408203125Z"/><path transform="translate(3600,0)" d="M360 0Q281.39471435546875 0 236.92202758789062 43.8502197265625Q192.4493408203125 87.700439453125 192.4493408203125 165.47576904296875V436.99383544921875H43.299560546875V550H192.4493408203125V705H317.5506591796875V550H528.7753295898438V436.99383544921875H317.5506591796875V165.47576904296875Q317.5506591796875 113.00616455078125 368.77532958984375 113.00616455078125H518.7753295898438V0Z"/><path transform="translate(4200,0)" d="M299.58502197265625 -10Q195.22467041015625 -10 135.00704956054688 48.547576904296875Q74.7894287109375 107.09515380859375 74.7894287109375 208.1903076171875V550H199.8907470703125V208.77532958984375Q199.8907470703125 156.13568115234375 226.04052734375 127.48590087890625Q252.1903076171875 98.83612060546875 299.58502197265625 98.83612060546875Q346.8096923828125 98.83612060546875 373.45947265625 127.48590087890625Q400.1092529296875 156.13568115234375 400.1092529296875 208.77532958984375V550H525.2105712890625V208.1903076171875Q525.2105712890625 106.5101318359375 464.28546142578125 48.25506591796875Q403.3603515625 -10 299.58502197265625 -10Z"/><path transform="translate(4800,0)" d="M76.22467041015625 0V113.5911865234375H268.299560546875V436.99383544921875H101.22467041015625V550H387.5506591796875V113.5911865234375H557.9251098632812V0ZM317.92510986328125 641.979736328125Q280.24493408203125 641.979736328125 258.0273132324219 661.3476824079241Q235.8096923828125 680.7156284877232 235.8096923828125 713.7550659179688Q235.8096923828125 747.2651977539062 258.0273132324219 766.8127746582031Q280.24493408203125 786.3603515625 317.92510986328125 786.3603515625Q355.60528564453125 786.3603515625 377.8229064941406 766.8127746582031Q400.04052734375 747.2651977539062 400.04052734375 713.7550659179688Q400.04052734375 680.7156284877232 377.8229064941406 661.3476824079241Q355.60528564453125 641.979736328125 317.92510986328125 641.979736328125Z"/></g>
  <rect x="380.4" y="265.0" width="205.5" height="14" fill="#1A1B26"/>
  <g fill="#7AA2F7" transform="translate(392.4,290.4) scale(0.05041,-0.05041)"><path transform="translate(0,0)" d="M76.7894287109375 0V730H201.8907470703125V550L198.96563720703125 445H232.5911865234375L198.96563720703125 415.8096923828125Q198.96563720703125 483.73480224609375 238.5506591796875 521.8674011230469Q278.13568115234375 560 346.5506591796875 560Q427.79559326171875 560 476.5030822753906 506.07489013671875Q525.2105712890625 452.1497802734375 525.2105712890625 361.22467041015625V0H400.1092529296875V348.299560546875Q400.1092529296875 397.939208984375 373.87445068359375 425.17401123046875Q347.6396484375 452.4088134765625 301.24493408203125 452.4088134765625Q254.60528564453125 452.4088134765625 228.24801635742188 424.1365661621094Q201.8907470703125 395.86431884765625 201.8907470703125 344.1497802734375V0Z"/><path transform="translate(600,0)" d="M300.58502197265625 -10Q230.90484619140625 -10 178.89471435546875 16.877532958984375Q126.88458251953125 43.75506591796875 98.6295166015625 92.42510986328125Q70.37445068359375 141.09515380859375 70.37445068359375 205.8502197265625V344.1497802734375Q70.37445068359375 409.31982421875 98.6295166015625 457.7823791503906Q126.88458251953125 506.24493408203125 178.89471435546875 533.1224670410156Q230.90484619140625 560 300.58502197265625 560Q370.26519775390625 560 421.6903076171875 533.1224670410156Q473.11541748046875 506.24493408203125 501.3704833984375 457.7823791503906Q529.6255493164062 409.31982421875 529.6255493164062 344.1497802734375V245.39471435546875H190.5506591796875V205.8502197265625Q190.5506591796875 148.45550537109375 218.8704833984375 118.63568115234375Q247.1903076171875 88.81585693359375 301.75506591796875 88.81585693359375Q343.8096923828125 88.81585693359375 369.6669616699219 103.51321411132812Q395.52423095703125 118.2105712890625 402.52423095703125 145.8502197265625H525.8704833984375Q511.60528564453125 75.09515380859375 450.18017578125 32.547576904296875Q388.75506591796875 -10 300.58502197265625 -10ZM409.4493408203125 315.340087890625V345.31982421875Q409.4493408203125 402.1295166015625 382.21453857421875 432.4493408203125Q354.979736328125 462.7691650390625 300.58502197265625 462.7691650390625Q246.60528564453125 462.7691650390625 218.57797241210938 431.86431884765625Q190.5506591796875 400.95947265625 190.5506591796875 344.1497802734375V323.340087890625L418.20440673828125 324.5101318359375Z"/><path transform="translate(1200,0)" d="M76.7894287109375 -180V550H198.96563720703125V445H226.9110107421875L198.96563720703125 415.8096923828125Q198.96563720703125 483.4898681640625 239.00308227539062 521.7449340820312Q279.04052734375 560 347.04052734375 560Q430.04052734375 560 479.8330383300781 503.159912109375Q529.6255493164062 446.31982421875 529.6255493164062 349.56475830078125V200.8502197265625Q529.6255493164062 136.68017578125 507.12554931640625 89.21762084960938Q484.62554931640625 41.75506591796875 443.8330383300781 15.877532958984375Q403.04052734375 -10 347.04052734375 -10Q279.45550537109375 -10 239.2105712890625 28.462554931640625Q198.96563720703125 66.92510986328125 198.96563720703125 134.1903076171875L226.9110107421875 105H198.13568115234375L201.8907470703125 -25.8502197265625V-180ZM303 98.421142578125Q351.22467041015625 98.421142578125 377.87445068359375 126.27841186523438Q404.52423095703125 154.13568115234375 404.52423095703125 205.8502197265625V344.1497802734375Q404.52423095703125 396.4493408203125 377.87445068359375 424.01409912109375Q351.22467041015625 451.578857421875 303 451.578857421875Q256.1903076171875 451.578857421875 229.04052734375 423.3066101074219Q201.8907470703125 395.03436279296875 201.8907470703125 344.1497802734375V205.8502197265625Q201.8907470703125 154.96563720703125 229.04052734375 126.69338989257812Q256.1903076171875 98.421142578125 303 98.421142578125Z"/><path transform="translate(1800,0)" d="M140 272.4493408203125V387.5506591796875H460V272.4493408203125Z"/><path transform="translate(2400,0)" d="M76.7894287109375 -180V550H198.96563720703125V445H226.9110107421875L198.96563720703125 415.8096923828125Q198.96563720703125 483.4898681640625 239.00308227539062 521.7449340820312Q279.04052734375 560 347.04052734375 560Q430.04052734375 560 479.8330383300781 503.159912109375Q529.6255493164062 446.31982421875 529.6255493164062 349.56475830078125V200.8502197265625Q529.6255493164062 136.68017578125 507.12554931640625 89.21762084960938Q484.62554931640625 41.75506591796875 443.8330383300781 15.877532958984375Q403.04052734375 -10 347.04052734375 -10Q279.45550537109375 -10 239.2105712890625 28.462554931640625Q198.96563720703125 66.92510986328125 198.96563720703125 134.1903076171875L226.9110107421875 105H198.13568115234375L201.8907470703125 -25.8502197265625V-180ZM303 98.421142578125Q351.22467041015625 98.421142578125 377.87445068359375 126.27841186523438Q404.52423095703125 154.13568115234375 404.52423095703125 205.8502197265625V344.1497802734375Q404.52423095703125 396.4493408203125 377.87445068359375 424.01409912109375Q351.22467041015625 451.578857421875 303 451.578857421875Q256.1903076171875 451.578857421875 229.04052734375 423.3066101074219Q201.8907470703125 395.03436279296875 201.8907470703125 344.1497802734375V205.8502197265625Q201.8907470703125 154.96563720703125 229.04052734375 126.69338989257812Q256.1903076171875 98.421142578125 303 98.421142578125Z"/><path transform="translate(3000,0)" d="M76.7894287109375 0V730H201.8907470703125V550L198.96563720703125 445H232.5911865234375L198.96563720703125 415.8096923828125Q198.96563720703125 483.73480224609375 238.5506591796875 521.8674011230469Q278.13568115234375 560 346.5506591796875 560Q427.79559326171875 560 476.5030822753906 506.07489013671875Q525.2105712890625 452.1497802734375 525.2105712890625 361.22467041015625V0H400.1092529296875V348.299560546875Q400.1092529296875 397.939208984375 373.87445068359375 425.17401123046875Q347.6396484375 452.4088134765625 301.24493408203125 452.4088134765625Q254.60528564453125 452.4088134765625 228.24801635742188 424.1365661621094Q201.8907470703125 395.86431884765625 201.8907470703125 344.1497802734375V0Z"/></g>
  <path d="M94.0 103.0 L152.0 156.0 L94.0 209.0" fill="none" stroke="#B31B1B" stroke-width="24" stroke-linecap="round" stroke-linejoin="round"/>
  <rect x="186.0" y="100.0" width="30" height="112.0" rx="6" fill="#39D353"/>
</svg>
